# Blender v2.80 (sub 75) OBJ File: 'testding.blend'
# www.blender.org
mtllib testding.mtl
o Cube
v 0.750000 0.750000 -1.000000
v 0.750000 1.000000 -0.750000
v 1.000000 0.750000 -0.750000
v 0.750000 -1.000000 -0.750000
v 0.750000 -0.750000 -1.000000
v 1.000000 -0.750000 -0.750000
v 1.000000 0.750000 0.750000
v 0.750000 1.000000 0.750000
v 0.750000 0.750000 1.000000
v 1.000000 -0.750000 0.750000
v 0.750000 -0.750000 1.000000
v 0.750000 -1.000000 0.750000
v -0.750000 0.750000 -1.000000
v -1.000000 0.750000 -0.750000
v -0.750000 1.000000 -0.750000
v -1.000000 -0.750000 -0.750000
v -0.750000 -0.750000 -1.000000
v -0.750000 -1.000000 -0.750000
v -1.000000 0.750000 0.750000
v -0.750000 0.750000 1.000000
v -0.750000 1.000000 0.750000
v -0.750000 -1.000000 0.750000
v -0.750000 -0.750000 1.000000
v -1.000000 -0.750000 0.750000
vt 0.593750 0.781250
vt 0.406250 0.968750
vt 0.406250 0.781250
vt 0.593750 0.531250
vt 0.406250 0.718750
vt 0.406250 0.531250
vt 0.593750 0.281250
vt 0.406250 0.468750
vt 0.406250 0.281250
vt 0.593750 0.031250
vt 0.406250 0.218750
vt 0.406250 0.031250
vt 0.343750 0.531250
vt 0.156250 0.718750
vt 0.156250 0.531250
vt 0.843750 0.718750
vt 0.875000 0.718750
vt 0.843750 0.750000
vt 0.593750 0.750000
vt 0.625000 0.781250
vt 0.343750 0.718750
vt 0.375000 0.718750
vt 0.343750 0.750000
vt 0.156250 0.750000
vt 0.125000 0.718750
vt 0.843750 0.531250
vt 0.843750 0.500000
vt 0.875000 0.531250
vt 0.406250 0.750000
vt 0.375000 0.718750
vt 0.593750 0.500000
vt 0.625000 0.531250
vt 0.406250 1.000000
vt 0.375000 0.968750
vt 0.375000 0.781250
vt 0.343750 0.500000
vt 0.593750 0.468750
vt 0.593750 0.250000
vt 0.656250 0.531250
vt 0.593750 0.218750
vt 0.406250 0.250000
vt 0.375000 0.031250
vt 0.593750 0.968750
vt 0.625000 0.218750
vt 0.593750 0.000000
vt 0.625000 0.968750
vt 0.656250 0.718750
vt 0.593750 0.718750
vt 0.156250 0.500000
vt 0.406250 0.250000
vt 0.656250 0.500000
vt 0.593750 0.250000
vt 0.375000 0.218750
vt 0.593750 1.000000
vt 0.625000 0.031250
vt 0.406250 0.000000
vn 0.0000 -1.0000 0.0000
vn -1.0000 0.0000 0.0000
vn 0.0000 0.0000 1.0000
vn 0.0000 1.0000 0.0000
vn 1.0000 0.0000 0.0000
vn 0.5774 0.5774 -0.5774
vn 0.5774 -0.5774 -0.5774
vn 0.5774 0.5774 0.5774
vn 0.5774 -0.5774 0.5774
vn -0.5774 0.5774 -0.5774
vn -0.5774 -0.5774 -0.5774
vn -0.5774 0.5774 0.5774
vn -0.5774 -0.5774 0.5774
vn -0.7071 -0.7071 0.0000
vn 0.0000 -0.7071 -0.7071
vn 0.7071 0.0000 -0.7071
vn -0.7071 0.0000 0.7071
vn 0.7071 0.0000 0.7071
vn -0.7071 0.0000 -0.7071
vn 0.0000 0.7071 0.7071
vn 0.7071 0.7071 0.0000
vn 0.0000 -0.7071 0.7071
vn -0.7071 0.7071 0.0000
vn 0.0000 0.7071 -0.7071
vn 0.7071 -0.7071 0.0000
vn 0.0000 0.0000 -1.0000
usemtl Material
s off
f 4/1/1 22/2/1 18/3/1
f 19/4/2 16/5/2 24/6/2
f 9/7/3 23/8/3 11/9/3
f 15/10/4 8/11/4 2/12/4
f 3/13/5 10/14/5 6/15/5
f 1/16/6 2/17/6 3/18/6
f 4/1/7 5/19/7 6/20/7
f 7/21/8 8/22/8 9/23/8
f 10/14/9 11/24/9 12/25/9
f 13/26/10 14/27/10 15/28/10
f 16/5/11 17/29/11 18/30/11
f 19/4/12 20/31/12 21/32/12
f 22/2/13 23/33/13 24/34/13
f 22/2/14 16/35/14 18/3/14
f 18/3/15 5/19/15 4/1/15
f 6/15/16 1/36/16 3/13/16
f 20/37/17 24/6/17 23/8/17
f 11/9/18 7/38/18 9/7/18
f 17/39/19 14/27/19 13/26/19
f 21/40/20 9/41/20 8/11/20
f 8/11/21 3/42/21 2/12/21
f 12/43/22 23/33/22 22/2/22
f 15/10/23 19/44/23 21/40/23
f 2/12/24 13/45/24 15/10/24
f 4/1/25 10/46/25 12/43/25
f 13/26/26 5/47/26 17/39/26
f 4/1/1 12/43/1 22/2/1
f 19/4/2 14/48/2 16/5/2
f 9/7/3 20/37/3 23/8/3
f 15/10/4 21/40/4 8/11/4
f 3/13/5 7/21/5 10/14/5
f 22/2/14 24/34/14 16/35/14
f 18/3/15 17/29/15 5/19/15
f 6/15/16 5/49/16 1/36/16
f 20/37/17 19/4/17 24/6/17
f 11/9/18 10/50/18 7/38/18
f 17/39/19 16/51/19 14/27/19
f 21/40/20 20/52/20 9/41/20
f 8/11/21 7/53/21 3/42/21
f 12/43/22 11/54/22 23/33/22
f 15/10/23 14/55/23 19/44/23
f 2/12/24 1/56/24 13/45/24
f 4/1/25 6/20/25 10/46/25
f 13/26/26 1/16/26 5/47/26
